<svg xmlns="http://www.w3.org/2000/svg" width="1440" height="900" viewBox="0 0 1440 900">
  <g fill="none" fill-rule="evenodd">
    <rect width="1440" height="900" fill="#08113E"/>
    <path fill="#FF0354" fill-rule="nonzero" d="M966,770 C789.26888,770 646,626.73112 646,450 C646,273.26888 789.26888,130 966,130 C1142.73112,130 1286,273.26888 1286,450 C1286,626.73112 1142.73112,770 966,770 Z M877.653672,385 L848,385 L848,467.4 C848,477.666718 848.96841,486.566629 850.905258,494.1 C852.842107,501.633371 856.014484,507.833309 860.422484,512.7 C864.830484,517.566691 870.507369,521.166655 877.453309,523.5 C884.399249,525.833345 892.881183,527 902.899365,527 C912.917548,527 921.399482,525.833345 928.345422,523.5 C935.291361,521.166655 940.968246,517.566691 945.376247,512.7 C949.784247,507.833309 952.956624,501.633371 954.893472,494.1 C956.830321,486.566629 957.798731,477.666718 957.798731,467.4 L957.798731,385 L928.145059,385 L928.145059,470.6 C928.145059,480.466716 926.208239,487.833309 922.334542,492.7 C918.460845,497.566691 911.982517,500 902.899365,500 C893.816213,500 887.337886,497.566691 883.464189,492.7 C879.590491,487.833309 877.653672,480.466716 877.653672,470.6 L877.653672,385 Z M1002.4796,524.6 L1069,524.6 L1069,500.4 L1050.96736,500.4 L1050.96736,409.2 L1069,409.2 L1069,385 L1002.4796,385 L1002.4796,409.2 L1020.51224,409.2 L1020.51224,500.4 L1002.4796,500.4 L1002.4796,524.6 Z" opacity=".8"/>
    <path fill="#FF0354" fill-rule="nonzero" d="M605.370534,524.6 L609,524.6 L607.582217,522.367265 L778.899574,349.419174 C779.734986,351.944219 780.539804,354.483194 781.313586,357.03566 L384.952662,757.16946 C382.392492,756.42026 379.845617,755.639925 377.312477,754.828894 L605.370534,524.6 L605.370534,524.6 Z M585.368778,524.6 L595.32746,524.6 L369.76633,752.308199 C367.308883,751.452953 364.865071,750.568591 362.435307,749.655528 L585.368778,524.6 L585.368778,524.6 Z M599.768902,510.062804 L773.583238,334.593965 C774.519675,337.014684 775.427516,339.449637 776.306349,341.898412 L603.659076,516.189077 L599.768902,510.062804 L599.768902,510.062804 Z M570.625414,519.291554 L573.748911,524.6 L575.325703,524.6 L355.189935,746.831194 C352.82828,745.87715 350.480613,744.895742 348.147327,743.887364 L570.625414,519.291554 L570.625414,519.291554 Z M591.955588,497.758342 L767.677897,320.363369 C768.708695,322.686734 769.712635,325.02466 770.689324,327.376753 L595.845762,503.884615 L591.955588,497.758342 L591.955588,497.758342 Z M563.171793,506.623975 L566.882879,512.93104 L341.183878,740.778422 C338.912378,739.731468 336.655239,738.658682 334.412835,737.560442 L563.171793,506.623975 L563.171793,506.623975 Z M584.142273,485.453881 L761.219288,306.691307 C762.339044,308.922973 763.433463,311.169549 764.502169,313.430655 L588.032447,491.580154 L584.142273,485.453881 L584.142273,485.453881 Z M555.718172,493.956396 L559.429258,500.263461 L327.715994,734.182354 C325.530068,733.047271 323.358896,731.887709 321.202839,730.704032 L555.718172,493.956396 L555.718172,493.956396 Z M576.328958,473.149419 L754.236415,293.548499 C755.440748,295.693045 756.621086,297.852874 757.777068,300.027621 L580.219133,479.275692 L576.328958,473.149419 L576.328958,473.149419 Z M505.36175,524.6 L513.461538,524.6 L524.567718,505.211214 L548.264551,481.288816 L551.975637,487.595882 L314.760199,727.069324 C312.65614,725.849977 310.567253,724.607353 308.493889,723.341805 L505.36175,524.6 L505.36175,524.6 Z M568.515644,460.844958 L746.752717,280.911282 C748.038097,282.972394 749.300678,285.049191 750.540106,287.14132 L572.405818,466.971231 L568.515644,460.844958 L568.515644,460.844958 Z M485.359993,524.6 L495.318675,524.6 L302.295488,719.460534 C300.270332,718.160013 298.260796,716.837289 296.267223,715.492704 L485.359993,524.6 L485.359993,524.6 Z M576.382482,432.711087 L738.786938,268.760737 C740.150563,270.741341 741.492456,272.738063 742.812274,274.750562 L564.592503,454.666769 L563.534107,453 L576.382482,432.711087 L576.382482,432.711087 Z M544.522016,474.928303 L538.338472,481.170707 L542.904209,473.2 L543.50508,473.2 L544.522016,474.928303 L544.522016,474.928303 Z M506.292706,483.275884 L489.530002,510.251625 L290.305197,711.372809 C288.356626,709.993529 286.424155,708.59301 284.508121,707.171589 L506.292706,483.275884 L506.292706,483.275884 Z M603.641943,385 L730.353765,257.082034 C731.793464,258.984396 733.212391,260.903347 734.610209,262.838551 L594.182597,404.602864 L606.596517,385 L603.641943,385 L603.641943,385 Z M522.124821,447.100916 L525.478955,452.4 L523.197462,456.071542 L278.776453,702.819144 C276.902719,701.362923 275.045605,699.886334 273.205441,698.389707 L522.124821,447.100916 Z M542.333702,426.699672 L559.446168,409.424316 L546.108853,432.2 L545.507983,432.2 L542.333702,426.699672 Z M583.640186,385 L721.464305,245.863961 C722.978468,247.689761 724.472728,249.532659 725.946751,251.392325 L593.598868,385 L583.640186,385 L583.640186,385 Z M514.326774,434.781042 L518.209347,440.914989 L267.699773,693.80911 C265.899653,692.277224 264.116712,690.725757 262.351279,689.155039 L514.326774,434.781042 Z M534.970479,413.940834 L712.126424,235.098579 C713.713956,236.848959 715.282372,238.616992 716.831345,240.40235 L538.636557,420.293336 L534.970479,413.940834 Z M404.218904,525.744857 C407.498506,525.184321 410.531,524.436036 413.316401,523.5 C415.11025,522.897176 416.819426,522.20981 418.443931,521.437901 L257.068788,684.349141 C255.341541,682.742356 253.632082,681.116709 251.940738,679.472526 L404.218904,525.744857 L404.218904,525.744857 Z M441.061442,488.551622 L506.528727,422.461167 L510.4113,428.595114 L436.709606,502.998359 C437.981984,500.274018 439.0304,497.307903 439.854862,494.1 C440.310721,492.326296 440.712914,490.476838 441.061442,488.551622 Z M527.607257,401.181995 L702.344974,224.780987 C704.005261,226.456589 705.647152,228.150448 707.270318,229.862236 L531.273335,407.534498 L527.607257,401.181995 L527.607257,401.181995 Z M383.067439,526.905509 C384.630011,526.968503 386.234043,527 387.879536,527 C389.647768,527 391.368124,526.963629 393.040605,526.890886 L246.880052,674.442711 C245.225406,672.761312 243.589209,671.061704 241.971791,669.344216 L383.067439,526.905509 L383.067439,526.905509 Z M442.759071,466.645684 L498.73068,410.141293 L502.613253,416.27524 L442.450016,477.011157 C442.656053,473.952883 442.759071,470.749167 442.759071,467.4 L442.759071,466.645684 L442.759071,466.645684 Z M520.244035,388.423157 L692.121939,214.909183 C693.854832,216.510165 695.569986,218.130063 697.267073,219.76855 L523.910112,394.77566 L520.244035,388.423157 Z M365.517816,524.430033 C368.098618,525.128968 370.86705,525.685339 373.823122,526.099147 L237.132954,664.09044 C235.551094,662.33423 233.988408,660.560412 232.445225,658.769314 L365.517816,524.430033 Z M389.753127,499.964031 L412.844215,476.653144 C412.268916,482.685569 410.780667,487.539126 408.379448,491.213886 L403.391999,496.24881 C399.93449,498.504728 395.388217,499.743128 389.753127,499.964031 L389.753127,499.964031 Z M442.759071,446.453535 L490.932633,397.821419 L494.815206,403.955365 L442.759071,456.507011 L442.759071,446.453535 L442.759071,446.453535 Z M503.633158,385 L681.456489,205.484006 C683.262296,207.010048 685.050968,208.555729 686.822177,210.12072 L513.59184,385 L503.633158,385 L503.633158,385 Z M351.691101,518.196212 C353.658902,519.559043 355.790291,520.75852 358.085278,521.794647 L227.829698,653.290103 C226.321274,651.458404 224.832818,649.609646 223.364663,647.744163 L351.691101,518.196212 L351.691101,518.196212 Z M373.025758,496.658475 L413.11611,456.186511 L413.11611,466.239988 L380.339087,499.329009 C377.538289,498.778087 375.100516,497.88791 373.025758,496.658475 L373.025758,496.658475 Z M442.759071,426.261385 L483.134586,385.501544 L487.017159,391.635491 L442.759071,436.314862 L442.759071,426.261385 L442.759071,426.261385 Z M483.631401,385 L670.344957,196.509157 C672.224454,197.959452 674.087374,199.430181 675.933384,200.921012 L493.590083,385 L483.631401,385 Z M341.802846,507.986442 C342.897882,509.676382 344.102932,511.247566 345.417997,512.7 C345.68451,512.994352 345.955663,513.28407 346.231456,513.569154 L218.975364,642.03657 C217.54151,640.128197 216.1285,638.203273 214.73667,636.262135 L341.802846,507.986442 L341.802846,507.986442 Z M364.53192,485.041015 L413.11611,435.994362 L413.11611,446.047838 L367.784851,491.810596 C366.43462,489.897423 365.350307,487.640903 364.53192,485.041015 L364.53192,485.041015 Z M442.759071,406.069236 L658.780738,187.991304 C660.73519,189.364537 662.673579,190.759082 664.595569,192.174599 L442.759071,416.122712 L442.759071,406.069236 L442.759071,406.069236 Z M335.833076,493.820888 C335.85664,493.914133 335.880351,494.00717 335.904209,494.1 C336.566255,496.675958 337.37271,499.096007 338.323578,501.360156 L210.57806,630.321657 C209.220428,628.334888 207.884606,626.332035 206.57094,624.313442 L335.833076,493.820888 L335.833076,493.820888 Z M362.642961,466.755805 L413.11611,415.802212 L413.11611,425.855689 L362.904661,476.545091 C362.730194,474.676037 362.642961,472.694341 362.642961,470.6 L362.642961,466.755805 L362.642961,466.755805 Z M442.759071,385.877086 L646.754098,179.940273 C648.785293,181.234583 650.800904,182.551175 652.800587,183.889706 L442.759071,395.930563 L442.759071,385.877086 L442.759071,385.877086 Z M333.258715,476.227603 C333.454278,479.425936 333.76071,482.467742 334.178013,485.353032 L202.649156,618.133884 C201.369964,616.066405 200.113658,613.983273 198.880594,611.884841 L333.258715,476.227603 L333.258715,476.227603 Z M362.642961,446.563655 L413.11611,395.610062 L413.11611,405.66354 L362.642961,456.617132 L362.642961,446.563655 L362.642961,446.563655 Z M423.62613,385 L634.251885,172.369343 C636.362189,173.582263 638.457355,174.81855 640.53703,176.077848 L433.584813,385 L423.62613,385 L423.62613,385 Z M333,456.296631 L333,466.350109 L195.203639,605.458124 C194.00574,603.306953 192.831935,601.140528 191.682585,598.959216 L333,456.296631 Z M362.642961,426.371505 L621.25712,165.295653 C623.449551,166.424039 625.62726,167.577004 627.789883,168.754181 L413.583055,385 L413.11611,385 L413.11611,385.47139 L362.642961,436.424983 L362.642961,426.371505 L362.642961,426.371505 Z M333,436.104482 L333,446.157959 L188.260589,592.275114 C187.147575,590.036501 186.060009,587.783006 184.998269,585.515009 L333,436.104482 L333,436.104482 Z M362.642961,406.179356 L607.748433,158.740777 C610.02676,159.780697 612.290757,160.846562 614.540046,161.937991 L362.642961,416.232833 L362.642961,406.179356 L362.642961,406.179356 Z M333,415.912332 L333,425.96581 L181.843844,578.56079 C180.820168,576.230079 179.823477,573.884833 178.854165,571.525448 L333,415.912332 Z M362.642961,385.987207 L593.699307,152.731484 C596.068187,153.678079 598.423107,154.652166 600.763672,155.65335 L362.642961,396.040683 L362.642961,385.987207 L362.642961,385.987207 Z M333,395.720183 L333,405.77366 L175.982884,564.285389 C175.05404,561.856835 174.153935,559.41407 173.282986,556.957509 L333,395.720183 Z M343.619102,385 L579.077053,147.300775 C581.542214,148.148062 583.993766,149.024611 586.431294,149.930006 L353.577784,385 L343.619102,385 L343.619102,385 Z M333.576028,385 L333,385 L333,385.581511 L170.714031,549.412246 C169.886789,546.878759 169.09031,544.331365 168.325037,541.770504 L563.841424,142.489279 C566.40991,143.229891 568.965125,144.001807 571.50663,144.804586 L333.576028,385 Z M472.251986,770 C468.995671,769.972512 465.750955,769.896492 462.518527,769.772532 L794.658074,434.471419 C794.812532,437.702957 794.919054,440.947055 794.976945,444.203021 L472.251887,770 L472.251986,770 Z M452.977584,769.265621 C449.896278,769.056216 446.826943,768.803198 443.770192,768.50718 L793.21502,415.73606 C793.540159,418.789933 793.822336,421.856641 794.060937,424.935567 L452.977584,769.265621 L452.977584,769.265621 Z M434.723379,767.501435 C431.794619,767.133689 428.878173,766.726367 425.974593,766.280022 L790.817956,397.963791 C791.292121,400.862875 791.727326,403.775059 792.123015,406.699786 L434.723379,767.501435 Z M417.362603,764.835315 C414.569208,764.327299 411.788454,763.783024 409.020848,763.202996 L787.578391,381.042044 C788.185017,383.803789 788.755971,386.578899 789.290743,389.366869 L417.362603,764.835315 Z M400.797826,761.365619 C398.126371,760.731426 395.467883,760.063747 392.822831,759.36305 L783.582831,364.883487 C784.308983,367.521494 785.002209,370.173143 785.66204,372.837964 L400.797826,761.365619 Z M166.082089,533.896129 C165.364825,531.248927 164.680684,528.588105 164.030139,525.914135 L547.942708,138.347182 C550.623224,138.972006 553.290798,139.630514 555.944959,140.322237 L166.082089,533.896129 L166.082089,533.896129 Z M162.142612,517.680956 C161.545772,514.909072 160.98484,512.123842 160.460327,509.325778 L531.31906,134.936918 C534.12245,135.434585 536.913222,135.968747 539.69087,136.538896 L162.142612,517.680956 L162.142612,517.680956 Z M158.965126,500.696539 C158.50189,497.786113 158.077897,494.862608 157.693706,491.926584 L513.892684,132.337022 C516.832623,132.693175 519.760273,133.089189 522.675079,133.524506 L158.965126,500.696539 L158.965126,500.696539 Z M156.637802,482.853867 C156.325069,479.787094 156.055644,476.707509 155.830149,473.61573 L495.564214,130.647808 C498.65823,130.844008 501.740303,131.084171 504.809814,131.367678 L156.637802,482.853867 Z M155.274468,464.038028 C155.134371,460.791531 155.042647,457.532494 155,454.26162 L476.204157,130 C479.47519,130.012064 482.734674,130.073179 485.981893,130.182668 L155.274468,464.038028 Z M155.025703,444.097011 C155.088794,440.612324 155.20759,437.141242 155.381238,433.684616 L455.63369,130.574124 C459.088458,130.36792 462.557988,130.216518 466.041423,130.120777 L155.025703,444.097011 L155.025703,444.097011 Z M156.111735,422.808493 C156.427683,419.054516 156.808438,415.318981 157.252878,411.603011 L433.571031,132.654643 C437.282898,132.174884 441.014704,131.758718 444.765321,131.407274 L156.111735,422.808493 L156.111735,422.808493 Z M158.885387,399.816289 C159.532771,395.70663 160.258382,391.622958 161.060649,387.566845 L409.57039,136.691592 C413.619318,135.850488 417.696289,135.085873 421.799714,134.399336 L158.885387,399.816289 L158.885387,399.816289 Z M163.922421,374.53916 C165.039097,369.920444 166.255936,365.340871 167.570545,360.802832 L382.86596,143.458066 C387.392079,142.099957 391.960588,140.839129 396.56883,139.678238 L163.922421,374.53916 L163.922421,374.53916 Z M172.287624,345.902181 C174.164143,340.445155 176.18408,335.054849 178.342939,329.73575 L351.896748,154.529918 C357.196495,152.319629 362.568408,150.247751 368.007971,148.318801 L172.287624,345.902181 L172.287624,345.902181 Z M186.471319,311.391324 C190.014025,304.031458 193.830066,296.827975 197.906286,289.794033 L312.135251,174.477747 C319.131804,170.333799 326.300141,166.44843 333.626748,162.835154 L186.471319,311.391324 L186.471319,311.391324 Z M217.725529,259.647462 C235.990416,235.005786 257.711853,213.079877 282.173149,194.586379 L217.725529,259.647462 L217.725529,259.647462 Z M795,454.318388 C794.954201,457.784721 794.853284,461.237754 794.698088,464.676651 L492.719974,769.52923 C489.282783,769.716792 485.831152,769.85012 482.365924,769.928371 L795,454.318388 L795,454.318388 Z M794.028286,475.491501 C793.734309,479.222008 793.376355,482.934525 792.95552,486.627955 L514.653415,767.579159 C510.963891,768.035075 507.25491,768.428199 503.527575,768.757427 L794.028286,475.491501 L794.028286,475.491501 Z M791.402526,498.334404 C790.784756,502.412156 790.090027,506.464652 789.319866,510.490365 L538.481798,763.716108 C534.462988,764.524797 530.416923,765.258212 526.345144,765.914811 L791.402526,498.334404 L791.402526,498.334404 Z M786.570332,523.404744 C785.497526,527.9756 784.326722,532.5087 783.060258,537.001707 L564.935837,757.202408 C560.454275,758.511966 555.931825,759.726297 551.371008,760.842882 L786.570332,523.404744 L786.570332,523.404744 Z M778.52317,551.720655 C776.723704,557.091876 774.785642,562.399549 772.713226,567.639436 L595.479461,746.560195 C590.258167,748.683252 584.968164,750.67244 579.613713,752.523498 L778.52317,551.720655 L778.52317,551.720655 Z M764.960562,585.604512 C761.62614,592.721457 758.037383,599.695496 754.205987,606.514934 L634.185055,727.67832 C627.400413,731.575694 620.459387,735.231594 613.373706,738.634291 L764.960562,585.604512 L764.960562,585.604512 Z M736.495465,634.532712 C716.004098,663.514242 690.815539,688.939025 662.03806,709.698861 L736.495465,634.532712 L736.495465,634.532712 Z" opacity=".8"/>
  </g>
</svg>
